<?xml version="1.0" standalone="no"?>
<!DOCTYPE svg PUBLIC "-//W3C//DTD SVG 20010904//EN"
 "http://www.w3.org/TR/2001/REC-SVG-20010904/DTD/svg10.dtd">
<svg version="1.0" xmlns="http://www.w3.org/2000/svg"
 width="512.000000pt" height="512.000000pt" viewBox="0 0 512.000000 512.000000"
 preserveAspectRatio="xMidYMid meet">
<metadata>
Created by potrace 1.11, written by Peter Selinger 2001-2013
</metadata>
<g transform="translate(0.000000,512.000000) scale(0.100000,-0.100000)"
fill="#000000" stroke="none">
<path d="M2300 5099 c-121 -15 -155 -20 -230 -35 -240 -49 -436 -116 -650
-223 -312 -157 -557 -348 -796 -621 -161 -183 -308 -420 -407 -650 -85 -200
-146 -410 -176 -605 -6 -38 -13 -86 -17 -105 -13 -81 -13 -476 1 -592 49 -401
186 -779 400 -1102 210 -319 465 -569 783 -769 175 -110 473 -245 612 -278 19
-4 60 -15 90 -24 30 -8 65 -17 78 -20 12 -2 30 -6 40 -9 9 -3 33 -7 52 -10 19
-3 62 -10 95 -16 111 -19 199 -25 380 -25 245 0 308 7 580 61 222 45 548 179
771 317 77 48 243 167 281 201 6 6 47 42 90 81 423 378 721 933 807 1505 31
210 32 549 1 750 -177 1152 -1087 2032 -2235 2165 -124 14 -444 16 -550 4z"/>
</g>
</svg>
